{"title":"Meghan Trainor ft. John Legend - Like I'm Gonna Lose You (2015)","uid":12113919,"size":114514421,"categoryP":"video","categoryS":"music_videos","magnet":"?xt=urn:btih:5599cb8238408bd2c88d365a9d94a17af83c6437&amp;dn=Meghan+Trainor+ft.+John+Legend+-+Like+I%27m+Gonna+Lose+You+%282015%29&amp;tr=udp%3A%2F%2Ftracker.openbittorrent.com%3A80&amp;tr=udp%3A%2F%2Fopen.demonii.com%3A1337&amp;tr=udp%3A%2F%2Ftracker.coppersurfer.tk%3A6969&amp;tr=udp%3A%2F%2Fexodus.desync.com%3A6969","seeders":0,"leechers":6,"uploader":"MeRaDil","files":1,"time":1436641286,"description":"MEGHAN TRAINOR ft.JOHN LEGEND - LIKE I'M GONNA LOSE YOU\n\n\nMPEG4 MusicVid\n &lt;a href=&quot;\nhttp://gifyu.com/images/MeghanTrainor-1.png&quot; rel=&quot;nofollow&quot; target=&quot;_NEW&quot;&gt;\nhttp://gifyu.com/images/MeghanTrainor-1.png&lt;/a&gt;\n &lt;a href=&quot;\nhttp://gifyu.com/images/MeghanTrainor-2.png&quot; rel=&quot;nofollow&quot; target=&quot;_NEW&quot;&gt;\nhttp://gifyu.com/images/MeghanTrainor-2.png&lt;/a&gt;\n\nGeneral\nMeghan Trainor ft. John Legend - Like I'm Gonna Lose You\nFormat                                   : MPEG-4\nFormat profile                           : Base Media\nCodec ID                                 : isom\nFile size                                : 109 MiB\nDuration                                 : 3mn 47s\nOverall bit rate                         : 4 020 Kbps\nMusicVid name                            : Like I'm Gonna Lose You\nAlbum                                    : Title\nPerformer                                : Meghan Trainor ft. John Legend\nGenre                                    : Soul\nContentType                              : Music Video\nRecorded date                            : 2015\nCopyright                                : Meghan Trainor\nCover                                    : Yes\nRating                                   : ***\nMake                                     : MeRaDil\nArtist url                               : http://www.meghan-trainor.com\nRelease                                  : USA - july 9 - 2015\nPart_ID                                  : Like I'm Gonna Lose You\n\nVideo\nID                                       : 1\nFormat                                   : AVC\nFormat/Info                              : Advanced Video Codec\nFormat profile                           : &lt;a class=&quot;__cf_email__&quot; href=&quot;/cdn-cgi/l/email-protection&quot; data-cfemail=&quot;b5fddcd2ddf5f9819b85&quot;&gt;[email&amp;#160;protected]&lt;/a&gt;&lt;script data-cfhash='f9e31' type=&quot;text/javascript&quot;&gt;\n/* &lt;![CDATA[ */!function(){try{var t=&quot;currentScript&quot;in document?document.currentScript:function(){for(var t=document.getElementsByTagName(&quot;script&quot;),e=t.length;e--;)if(t[e].getAttribute(&quot;data-cfhash&quot;))return t[e]}();if(t&amp;&amp;t.previousSibling){var e,r,n,i,c=t.previousSibling,a=c.getAttribute(&quot;data-cfemail&quot;);if(a){for(e=&quot;&quot;,r=parseInt(a.substr(0,2),16),n=2;a.length-n;n+=2)i=parseInt(a.substr(n,2),16)^r,e+=String.fromCharCode(i);e=document.createTextNode(e),c.parentNode.replaceChild(e,c)}t.parentNode.removeChild(t);}}catch(u){}}()/* ]]&gt; */&lt;/script&gt;\nFormat settings, CABAC                   : Yes\nFormat settings, ReFrames                : 2 frames\nCodec ID                                 : avc1\nCodec ID/Info                            : Advanced Video Coding\nDuration                                 : 3mn 47s\nBit rate                                 : 3 758 Kbps\nWidth                                    : 1 920 pixels\nHeight                                   : 1 080 pixels\nDisplay aspect ratio                     : 16:9\nFrame rate mode                          : Variable\nFrame rate                               : 23.976 fps\nMinimum frame rate                       : 23.974 fps\nMaximum frame rate                       : 23.981 fps\nColor space                              : YUV\nChroma subsampling                       : 4:2:0\nBit depth                                : 8 bits\nScan type                                : Progressive\nBits/(Pixel*Frame)                       : 0.076\nStream size                              : 102 MiB (93%)\n\nAudio\nID                                       : 2\nFormat                                   : AAC\nFormat/Info                              : Advanced Audio Codec\nFormat profile                           : LC\nCodec ID                                 : 40\nDuration                                 : 3mn 47s\nBit rate mode                            : Constant\nBit rate                                 : 256 Kbps\nChannel(s)                               : 2 channels\nChannel positions                        : Front: L R\nSampling rate                            : 44.1 KHz\nCompression mode                         : Lossy\nStream size                              : 6.95 MiB (6%)\n\nMeghan Trainor * John Legend * Title * Soul/Pop * Promo\n &lt;a href=&quot;\nhttps://thepiratebay.se/user/MeRaDil&quot; rel=&quot;nofollow&quot; target=&quot;_NEW&quot;&gt;\nhttps://thepiratebay.se/user/MeRaDil&lt;/a&gt;","torrent":{"xt":"urn:btih:5599cb8238408bd2c88d365a9d94a17af83c6437","amp;dn":"Meghan+Trainor+ft.+John+Legend+-+Like+I%27m+Gonna+Lose+You+%282015%29","amp;tr":["udp%3A%2F%2Ftracker.openbittorrent.com%3A80","udp%3A%2F%2Fopen.demonii.com%3A1337","udp%3A%2F%2Ftracker.coppersurfer.tk%3A6969","udp%3A%2F%2Fexodus.desync.com%3A6969"],"infoHash":"5599cb8238408bd2c88d365a9d94a17af83c6437","infoHashBuffer":{"type":"Buffer","data":[85,153,203,130,56,64,139,210,200,141,54,90,157,148,161,122,248,60,100,55]},"announce":[],"urlList":[]}}